<?xml version="1.0" standalone="no"?>
<!DOCTYPE svg PUBLIC "-//W3C//DTD SVG 20010904//EN"
 "http://www.w3.org/TR/2001/REC-SVG-20010904/DTD/svg10.dtd">
<svg version="1.0" xmlns="http://www.w3.org/2000/svg"
 width="860.000000pt" height="756.000000pt" viewBox="0 0 860.000000 756.000000"
 preserveAspectRatio="xMidYMid meet">
<metadata>
Created by potrace 1.16, written by Peter Selinger 2001-2019
</metadata>
<g transform="translate(0.000000,756.000000) scale(0.100000,-0.100000)"
fill="#000000" stroke="none">
<path d="M3315 7024 c-143 -68 -318 -151 -390 -185 -113 -54 -334 -159 -660
-314 -82 -39 -1021 -485 -1592 -757 -162 -77 -233 -116 -233 -127 0 -10 33
-35 81 -64 87 -50 99 -54 99 -33 0 13 82 53 1590 786 404 197 834 405 955 464
121 59 300 146 398 193 97 48 176 88 174 89 -1 2 -38 18 -82 37 l-80 34 -260
-123z"/>
<path d="M2447 6183 c-1188 -596 -1567 -790 -1567 -804 0 -12 46 -44 148 -102
210 -122 200 -107 103 -152 l-82 -39 31 -19 c30 -19 32 -37 4 -37 -9 0 -14 -6
-11 -12 2 -7 11 -11 18 -10 47 12 79 13 79 4 0 -6 -130 -76 -289 -155 l-289
-144 62 -37 63 -36 259 123 c142 68 278 131 302 142 l42 18 53 -28 c28 -16 67
-38 84 -50 l33 -22 -50 -27 c-52 -28 -68 -44 -25 -24 19 9 29 8 50 -6 15 -10
23 -22 19 -29 -5 -9 -3 -9 7 1 18 16 30 15 23 -2 -12 -31 15 -54 73 -66 32 -7
73 -19 90 -27 22 -10 46 -13 70 -9 28 5 34 4 23 -3 -8 -6 -29 -11 -46 -11 -17
0 -37 -7 -44 -15 -11 -13 -6 -15 34 -15 34 0 61 -8 99 -30 29 -16 45 -30 36
-30 -9 0 -19 -7 -23 -15 -3 -8 -9 -14 -13 -14 -15 4 -43 -13 -38 -21 6 -9 51
4 95 27 30 16 41 -1 14 -22 -11 -7 -16 -17 -11 -21 4 -4 13 -2 19 4 18 18 63
14 89 -7 18 -14 29 -16 50 -9 22 8 38 2 110 -43 46 -28 98 -58 114 -65 26 -12
27 -13 8 -14 -13 0 -23 -4 -23 -10 0 -5 -7 -10 -15 -10 -8 0 -15 -4 -15 -10 0
-5 -7 -10 -15 -10 -8 0 -15 -4 -15 -10 0 -5 -7 -10 -15 -10 -8 0 -15 -8 -15
-17 0 -13 2 -15 8 -5 5 7 18 14 29 16 11 3 42 15 69 29 l49 24 49 -31 c53 -35
59 -48 26 -56 -12 -3 -21 -9 -21 -15 0 -18 42 -17 61 0 18 16 22 16 72 -12 58
-33 70 -52 39 -60 -12 -3 -20 -11 -18 -17 3 -6 11 -9 18 -7 8 2 20 4 27 4 6 0
12 4 12 9 0 11 33 10 45 -1 6 -5 32 -20 60 -35 27 -14 44 -26 37 -26 -6 0 -12
-7 -12 -15 0 -8 -5 -15 -11 -15 -5 0 -7 4 -4 10 3 5 1 10 -4 10 -6 0 -11 -7
-11 -15 0 -19 29 -19 53 -1 16 13 25 10 78 -21 55 -33 68 -53 33 -53 -19 0
-18 -16 2 -24 22 -8 26 -8 19 4 -4 6 5 10 20 10 36 0 125 -51 125 -71 0 -9
-16 -24 -35 -35 -22 -12 -31 -22 -25 -28 6 -6 16 -4 27 6 10 8 32 20 50 27 29
12 36 10 93 -22 l61 -34 -39 -31 c-22 -17 -42 -29 -46 -25 -3 3 -6 1 -6 -6 0
-7 -4 -9 -10 -6 -5 3 -10 1 -10 -5 0 -7 6 -10 14 -7 8 3 30 9 50 12 19 4 42
16 52 26 9 10 21 19 25 19 4 0 36 -17 71 -37 54 -32 60 -38 44 -47 -10 -6 -27
-19 -38 -28 -12 -10 -27 -18 -35 -18 -7 0 -13 -4 -13 -10 0 -5 5 -10 10 -10
17 0 25 5 23 12 -2 4 3 5 10 3 6 -3 27 4 44 15 23 14 31 25 27 37 -4 11 -2 14
3 7 4 -6 34 -25 65 -43 32 -18 60 -37 63 -42 4 -5 12 -6 18 -3 7 4 3 -2 -8
-13 -11 -11 -23 -19 -27 -17 -4 3 -14 -6 -23 -18 -8 -13 -18 -22 -20 -20 -12
6 -26 1 -21 -7 8 -12 46 -2 46 12 0 6 3 8 6 4 4 -3 24 3 45 14 l39 19 170 -98
c93 -55 166 -102 162 -106 -4 -4 4 -3 18 4 20 9 31 8 50 -2 49 -26 276 -161
318 -189 23 -16 45 -29 48 -29 4 0 34 -17 68 -37 33 -21 68 -42 77 -48 9 -5
54 -31 100 -58 46 -26 102 -58 124 -72 22 -13 69 -41 103 -61 l64 -37 -29 -23
c-15 -13 -119 -94 -230 -181 -112 -86 -203 -159 -203 -163 0 -4 216 -134 480
-290 365 -215 480 -287 480 -301 0 -10 -3 -19 -6 -19 -3 0 -121 68 -262 152
-316 186 -691 408 -917 540 -93 55 -187 111 -207 124 -21 13 -39 24 -42 24 -2
0 -100 57 -217 126 -118 70 -257 151 -309 182 -52 30 -119 70 -148 88 -29 19
-54 34 -57 34 -2 0 -127 73 -277 163 -473 283 -1312 778 -1535 906 l-142 81
-82 -39 -81 -39 33 -17 32 -17 -23 -18 c-29 -22 -12 -33 28 -18 23 9 35 9 43
1 11 -11 -89 -65 -413 -224 l-156 -76 96 -60 c53 -33 158 -95 232 -138 74 -42
158 -91 185 -108 28 -17 100 -58 160 -92 61 -35 148 -85 195 -113 82 -49 86
-50 110 -35 25 16 25 16 7 -4 -19 -22 -19 -23 28 -49 11 -6 132 -77 268 -158
l248 -147 57 32 c31 18 97 57 147 87 49 30 140 81 202 114 l113 60 29 -21 c16
-12 34 -21 40 -21 6 0 11 -7 11 -15 0 -8 6 -15 13 -15 7 0 32 -11 57 -24 36
-19 49 -22 72 -14 22 8 34 6 53 -6 14 -9 23 -21 20 -26 -3 -6 10 -17 29 -27
35 -16 47 -33 25 -33 -6 0 -17 -7 -26 -16 -9 -8 -22 -13 -31 -9 -13 5 -13 3
-1 -11 8 -9 15 -12 17 -6 2 8 10 8 26 1 18 -8 31 -7 55 5 30 16 33 16 59 -2
15 -11 33 -17 40 -15 7 3 68 -28 135 -68 67 -41 134 -80 150 -88 15 -7 27 -19
27 -26 0 -6 12 -18 26 -25 l26 -14 -34 -29 -33 -29 47 26 c26 14 50 26 55 26
4 0 24 -14 43 -30 19 -16 45 -30 56 -30 12 0 27 -6 33 -14 9 -11 4 -20 -26
-45 l-38 -32 45 25 c37 20 47 22 57 11 7 -7 18 -15 25 -18 9 -3 8 -9 -7 -21
-11 -8 -15 -16 -7 -16 16 0 15 -25 -3 -43 -14 -14 -11 -27 7 -27 5 0 6 4 3 10
-3 5 0 10 8 10 8 0 19 10 25 23 10 21 11 21 11 1 1 -11 8 -29 16 -40 14 -18
14 -18 15 8 0 27 1 27 20 10 12 -9 24 -17 28 -17 4 0 18 -8 32 -18 13 -9 18
-17 11 -17 -11 0 -11 -3 0 -16 12 -15 11 -16 -6 -10 -16 4 -21 2 -21 -13 0
-19 1 -19 31 2 16 12 33 26 37 32 5 6 8 6 8 -2 0 -7 15 -19 33 -28 17 -8 44
-25 59 -37 82 -68 92 -74 121 -69 19 3 4 -10 -27 -23 -19 -8 -42 -26 -51 -39
-35 -54 25 -95 152 -104 40 -3 73 -9 73 -13 0 -4 12 -20 27 -35 25 -24 32 -26
73 -20 65 10 140 11 153 3 9 -6 8 -8 -1 -8 -7 0 -10 -5 -6 -11 3 -6 14 -9 23
-6 10 2 18 -1 18 -9 0 -7 -4 -11 -8 -8 -4 2 -10 0 -14 -6 -3 -5 1 -10 9 -10 8
0 17 4 20 9 3 5 15 11 27 14 11 3 18 3 15 0 -3 -3 1 -12 9 -20 18 -17 20 -37
3 -27 -7 4 -8 3 -4 -5 6 -9 11 -9 22 -1 10 9 20 7 44 -10 16 -12 30 -25 30
-30 0 -5 6 -7 14 -4 18 7 89 -40 78 -52 -4 -5 4 0 17 11 l24 20 -11 -21 c-8
-16 -8 -21 2 -21 19 0 176 -93 176 -105 0 -5 -4 -6 -10 -3 -5 3 -15 3 -21 -1
-8 -4 -7 -9 2 -15 10 -6 8 -9 -9 -9 -13 0 -21 -4 -18 -9 4 -5 24 -2 47 7 44
17 41 18 178 -57 44 -24 58 -28 80 -20 26 10 26 10 6 -8 -11 -10 -50 -44 -87
-77 -37 -32 -66 -62 -63 -66 7 -11 95 -60 108 -60 5 0 87 62 180 138 94 75
178 143 186 150 14 11 13 15 -12 35 l-28 24 23 36 c31 48 41 50 92 25 l44 -21
64 54 c82 69 115 96 210 172 42 34 77 64 78 67 0 3 -15 14 -34 24 -19 10 -36
27 -39 37 -6 24 15 43 31 27 9 -9 15 -9 24 0 9 9 9 12 0 12 -7 0 -12 5 -12 10
0 6 7 7 18 1 54 -27 95 -40 106 -34 26 16 316 257 316 263 0 4 -18 16 -40 29
-44 25 -44 24 -30 52 7 13 21 19 43 19 21 0 27 3 19 9 -11 7 -11 11 2 23 9 10
11 19 5 25 -5 5 57 64 164 155 94 80 181 154 192 165 11 10 36 32 56 48 19 17
114 98 210 180 179 154 205 177 242 208 107 89 187 163 187 172 0 10 61 67 90
85 5 3 -18 16 -51 30 -32 14 -59 28 -59 31 0 4 143 129 318 279 212 182 317
279 317 292 0 16 -57 44 -314 154 -173 74 -318 134 -323 134 -6 0 -244 -201
-530 -447 -287 -247 -537 -461 -557 -478 -20 -16 -271 -232 -559 -478 -288
-247 -530 -451 -538 -454 -8 -3 -83 35 -166 85 -84 49 -180 104 -213 122 -33
18 -384 224 -780 458 -784 463 -1024 604 -1510 890 -264 156 -320 192 -320
210 0 18 71 65 410 269 226 135 462 276 525 313 63 37 306 182 540 321 234
140 685 409 1003 599 317 190 577 348 577 352 0 3 -33 19 -72 34 -40 15 -138
56 -218 92 -80 35 -176 77 -215 92 -38 15 -95 39 -125 53 -30 14 -206 89 -390
167 -184 78 -342 146 -350 150 -10 6 -511 -241 -1583 -777z m1903 194 l74 -33
-90 -51 c-49 -28 -125 -70 -169 -93 -44 -24 -105 -59 -135 -78 -30 -19 -226
-130 -435 -247 -209 -117 -559 -312 -777 -434 -218 -121 -402 -221 -408 -221
-15 0 -160 80 -160 88 0 6 186 110 1210 670 135 74 304 165 375 202 72 37 195
104 275 148 80 45 150 81 156 81 6 1 44 -14 84 -32z m-1480 -547 c19 -11 31
-19 25 -19 -5 0 -21 6 -35 14 -42 24 -45 17 -9 -22 18 -20 27 -32 19 -27 -17
12 -102 35 -108 29 -2 -2 14 -13 37 -25 23 -11 41 -25 41 -31 0 -5 -10 -3 -22
5 -26 18 -42 21 -32 5 3 -6 -8 -4 -24 5 -45 23 -63 19 -22 -5 21 -11 26 -17
13 -14 -18 5 -22 3 -17 -9 4 -9 1 -16 -6 -16 -9 0 -9 -4 1 -17 13 -15 12 -15
-9 -4 -12 6 -27 9 -32 6 -5 -3 -23 1 -40 10 -17 9 -36 13 -42 9 -7 -4 0 -12
16 -21 15 -8 26 -17 23 -20 -3 -2 -19 3 -36 11 -35 19 -41 19 -41 6 0 -5 12
-16 27 -23 26 -14 26 -15 5 -21 -13 -4 -36 1 -63 14 -25 13 -44 18 -48 12 -3
-5 -15 -12 -26 -15 -11 -2 0 -5 25 -6 25 -1 51 -5 59 -10 15 -10 7 -31 -12
-30 -9 0 -8 2 1 6 25 10 -1 23 -48 23 -27 0 -52 4 -55 10 -8 12 61 41 80 33 9
-3 22 1 31 8 8 7 36 22 62 34 44 20 47 20 64 3 19 -19 48 -24 48 -8 0 6 -4 10
-8 10 -5 0 -17 7 -28 16 -12 10 -13 14 -4 11 8 -3 24 -8 35 -12 11 -3 3 3 -17
15 -21 11 -38 23 -38 26 0 3 5 2 12 -2 6 -4 26 -8 42 -9 17 -1 40 -5 51 -9 11
-4 3 2 -18 14 -21 12 -35 26 -31 31 4 8 9 7 14 -1 4 -7 16 -9 27 -6 11 4 33 2
49 -4 27 -11 28 -11 10 8 -13 16 -14 21 -4 25 19 8 20 8 58 -13z m4977 -1594
c43 -19 79 -39 81 -44 1 -5 -18 -26 -43 -47 l-46 -37 -84 38 c-47 20 -85 41
-85 45 0 9 81 79 91 79 5 0 43 -15 86 -34z m-6283 -632 c21 -13 23 -19 15 -46
-10 -35 -29 -61 -29 -39 0 7 -5 9 -11 5 -6 -3 -15 0 -20 7 -6 10 -9 7 -10 -11
l-1 -25 -8 25 c-7 22 -8 21 -9 -12 l-1 -38 60 0 c41 0 60 -4 60 -12 0 -10 -20
-12 -75 -10 -74 4 -75 4 -75 30 -1 25 -2 26 -14 9 -8 -10 -23 -20 -35 -22 -18
-3 -20 -1 -11 14 5 10 7 20 5 22 -7 8 39 83 50 82 6 -1 17 4 25 11 15 13 37
24 53 25 4 1 18 -6 31 -15z m767 -255 c40 -20 48 -43 15 -45 -12 -2 -13 -1 -1
3 24 7 17 26 -7 19 -13 -3 -29 -6 -36 -6 -7 0 -10 -4 -7 -10 9 -15 -7 -12 -29
5 -22 16 -46 20 -46 7 0 -5 12 -14 26 -21 15 -6 24 -14 21 -17 -3 -3 -16 0
-29 6 -18 10 -21 10 -11 0 9 -10 7 -17 -13 -33 -14 -10 -33 -17 -44 -14 -14 3
-17 1 -13 -11 4 -9 2 -13 -4 -9 -6 4 -13 2 -15 -5 -3 -9 -11 -8 -31 5 -14 9
-30 17 -34 17 -4 0 5 -9 22 -20 l29 -19 -29 -13 c-17 -7 -42 -21 -56 -31 -26
-18 -28 -17 -73 10 -25 15 -46 31 -46 35 0 15 53 21 72 9 11 -7 23 -10 26 -7
3 3 0 6 -7 6 -7 0 -9 5 -6 11 5 7 15 5 31 -5 13 -9 31 -16 41 -16 13 1 11 5
-9 16 -16 8 -28 20 -28 26 0 6 3 9 6 5 3 -3 12 -1 19 6 10 9 9 14 -4 24 -24
18 5 16 33 -2 22 -15 24 -14 29 4 2 11 0 24 -6 30 -14 14 -2 14 23 1 13 -7 21
-7 25 0 4 7 14 6 28 -2 20 -10 21 -10 9 5 -12 14 -10 17 15 23 15 4 34 13 41
21 18 17 26 17 73 -8z"/>
<path d="M7724 4226 c-22 -19 -37 -36 -34 -39 3 -2 36 -18 75 -35 l69 -30 38
30 c21 16 38 33 38 38 0 4 -17 15 -37 23 -21 9 -54 22 -74 31 -36 15 -37 15
-75 -18z"/>
<path d="M5089 4611 c-152 -108 -470 -333 -707 -501 -237 -168 -432 -307 -431
-310 0 -4 1288 -750 1310 -758 8 -3 189 145 189 155 0 3 -24 -14 -52 -39 -29
-24 -72 -58 -94 -76 l-42 -32 -49 32 c-26 18 -65 42 -86 53 -20 11 -37 23 -37
28 0 4 -4 6 -8 3 -4 -2 -14 -1 -22 5 -10 5 -11 9 -3 9 21 0 3 27 -36 53 -21
14 -37 33 -38 46 -1 14 3 19 10 15 7 -3 3 2 -7 10 -11 9 -24 16 -29 16 -4 0
-5 10 -2 21 5 13 3 19 -3 15 -14 -8 -34 18 -27 36 4 9 -3 19 -17 26 -17 8 -18
11 -7 11 9 1 19 7 22 15 4 9 0 13 -11 11 -21 -3 -44 14 -36 27 3 5 2 14 -3 21
-8 10 -10 32 -3 40 7 9 5 45 -4 44 -5 -1 -12 6 -14 17 -2 11 0 16 7 12 18 -11
13 2 -9 24 -19 19 -19 47 0 35 4 -3 10 2 13 9 3 8 1 17 -6 19 -7 3 -1 10 13
16 25 11 25 11 -4 6 -26 -6 -28 -4 -17 9 8 9 10 16 5 17 -5 0 2 5 16 11 l25
10 -24 9 c-36 14 -10 35 45 37 52 2 77 14 109 48 14 15 34 24 51 24 18 0 34 7
42 20 14 23 10 26 -10 7 -7 -8 -30 -16 -50 -20 -34 -5 -40 -2 -66 29 -23 28
-31 32 -35 20 -4 -10 -1 -16 7 -16 7 0 22 -12 35 -26 l22 -26 -27 -24 c-21
-20 -35 -25 -69 -23 -36 2 -52 -3 -92 -32 -39 -28 -48 -40 -48 -64 0 -29 -1
-30 -49 -30 -88 0 -92 65 -4 75 55 7 135 64 118 85 -6 7 -8 25 -4 39 5 21 14
26 50 32 24 3 41 10 38 15 -3 5 0 9 6 9 6 0 8 4 5 10 -3 5 0 7 9 4 17 -7 40
30 32 52 -3 8 1 14 10 14 8 0 12 5 9 10 -6 9 14 14 42 11 7 -1 10 5 7 13 -8
21 6 42 16 25 7 -10 12 -10 27 1 15 12 16 12 6 0 -16 -17 -17 -40 -2 -40 5 0
8 4 5 9 -3 5 1 14 9 21 8 7 12 16 9 21 -3 5 1 6 8 4 8 -3 29 8 47 24 30 27 32
32 20 48 -9 10 -9 14 -2 10 7 -5 18 1 25 13 7 11 23 20 35 20 12 0 25 5 28 10
4 6 11 8 16 5 5 -4 9 -1 9 4 0 6 4 11 10 11 5 0 6 -8 3 -17 -5 -12 -2 -15 8
-11 8 3 26 0 40 -8 37 -21 48 -16 12 6 -41 24 -57 54 -44 78 9 16 2 23 -48 47
-40 19 -67 26 -84 21 -58 -14 -125 37 -94 72 8 9 13 26 11 37 -9 45 -8 58 3
62 7 3 11 -7 11 -25 -1 -41 8 -52 45 -52 41 0 77 -25 77 -53 0 -18 13 -29 53
-49 48 -23 58 -25 94 -15 108 28 211 -64 137 -122 -31 -25 -19 -28 15 -5 18
13 22 24 20 58 -1 22 -1 46 0 53 1 15 30 10 43 -8 8 -11 9 -11 4 3 -5 18 9 25
64 31 16 1 24 -3 22 -11 -1 -8 2 -11 8 -7 6 3 8 11 5 16 -4 5 4 10 17 10 13 1
59 3 103 5 44 2 86 6 94 9 9 4 11 0 7 -12 -6 -15 -5 -16 5 -5 15 14 89 16 89
2 0 -5 4 -10 10 -10 5 0 7 7 3 16 -5 13 -2 15 18 9 13 -5 40 -10 59 -11 110
-10 140 -18 140 -37 0 -6 3 -8 6 -4 4 3 47 -14 96 -39 50 -25 92 -44 94 -42 1
2 -246 128 -549 280 l-553 276 -275 -197z m459 62 c17 -10 23 -22 20 -38 -4
-19 5 -27 61 -55 39 -20 83 -34 109 -35 52 -2 82 -26 66 -53 -22 -35 -114 -17
-114 23 0 24 -133 86 -168 79 -24 -5 -29 -10 -24 -27 3 -14 1 -18 -6 -13 -7 4
-12 13 -12 20 0 6 -16 18 -35 24 -20 8 -40 25 -48 42 -14 26 -13 29 7 36 11 4
30 10 41 15 26 9 73 1 103 -18z m-507 -398 c14 -8 38 -30 54 -50 l27 -37 -45
-43 c-24 -24 -48 -40 -53 -36 -5 5 -38 14 -73 20 -76 13 -105 30 -119 70 -21
59 44 103 138 94 24 -3 56 -11 71 -18z m-323 -201 c27 -19 28 -55 3 -78 -41
-38 -161 -13 -161 33 0 11 -6 21 -12 23 -7 3 1 12 17 20 40 21 124 22 153 2z
m-24 -180 c20 -19 20 -23 -1 -46 -20 -22 -76 -24 -97 -3 -23 23 -163 20 -195
-4 -16 -12 -20 -21 -12 -25 17 -11 13 -51 -8 -70 -22 -20 -97 -24 -130 -7 -31
17 -44 47 -31 71 6 11 15 20 20 20 6 0 10 7 10 15 0 11 7 14 23 11 71 -15 90
-15 110 -1 13 8 61 18 110 21 54 4 91 12 98 20 16 19 84 18 103 -2z"/>
<path d="M6044 4088 c-21 -10 -20 -11 21 -49 50 -47 201 -139 225 -139 25 0
69 40 52 47 -10 4 -9 8 4 17 13 10 14 17 5 34 -16 30 -70 69 -120 87 -49 17
-155 19 -187 3z"/>
<path d="M5470 4017 c-57 -19 -98 -49 -114 -81 -13 -27 -13 -31 0 -34 8 -2 12
-8 9 -13 -4 -5 8 -9 24 -9 21 0 31 5 31 15 0 13 24 20 52 16 4 0 12 15 18 34
11 32 15 35 51 35 22 0 48 -4 58 -9 10 -6 23 -6 32 0 11 7 9 13 -15 32 -33 27
-90 32 -146 14z"/>
<path d="M6000 4011 c0 -5 30 -32 68 -61 80 -63 64 -60 -47 9 -86 54 -86 54
-84 -6 1 -9 -5 -10 -17 -3 -30 16 -47 11 -22 -6 12 -8 22 -22 22 -31 0 -13 -9
-15 -45 -10 -45 4 -45 4 -29 -14 16 -18 16 -19 -3 -19 -10 0 -28 -6 -38 -14
-19 -14 -19 -15 -2 -51 10 -21 16 -39 14 -42 -3 -2 -18 8 -35 22 -53 45 -78
26 -32 -26 37 -43 31 -48 -15 -13 -36 27 -38 27 -51 9 -8 -10 -14 -25 -14 -31
0 -18 21 -66 38 -86 18 -21 18 -22 -33 -3 -41 15 -132 18 -174 6 -29 -8 -17
-20 49 -45 25 -10 90 -41 146 -70 l100 -53 30 24 c20 17 25 26 16 30 -7 3 -25
16 -40 29 -20 17 -23 23 -11 24 9 0 22 7 29 15 11 13 16 12 40 -5 16 -11 34
-20 42 -20 13 0 180 135 186 149 1 4 -22 24 -53 44 -57 39 -69 57 -36 57 30 0
51 11 51 26 0 19 1 19 67 -20 l58 -34 27 20 c16 10 28 23 28 27 0 4 -19 17
-42 28 l-43 22 33 0 c62 2 29 42 -77 96 -70 35 -101 43 -101 26z"/>
<path d="M5153 3841 c-63 -16 -89 -53 -68 -95 11 -21 12 -32 3 -45 -20 -33 -2
-67 49 -89 42 -18 50 -19 59 -7 6 8 16 15 23 15 16 0 14 10 -9 53 l-20 37 20
0 c24 0 95 35 106 51 4 7 8 27 10 44 2 28 -1 33 -19 32 -12 0 -44 3 -72 6 -27
3 -65 2 -82 -2z"/>
<path d="M820 3597 c-35 -18 -68 -40 -74 -50 -15 -24 10 -67 51 -88 18 -9 30
-19 26 -23 -3 -3 2 -6 12 -6 10 0 26 -6 34 -14 9 -8 35 -25 58 -38 105 -59
182 -103 228 -131 28 -16 64 -37 80 -47 17 -9 55 -33 85 -52 30 -19 70 -40 87
-47 18 -7 30 -17 27 -22 -3 -5 4 -9 14 -9 11 0 25 -7 32 -15 7 -8 19 -15 26
-15 8 0 14 -4 14 -10 0 -5 6 -10 13 -10 6 0 32 -14 56 -30 24 -16 47 -28 51
-25 4 3 10 -2 14 -10 3 -8 12 -15 21 -15 8 0 15 -5 15 -11 0 -5 4 -8 8 -5 5 3
18 -3 28 -12 10 -10 45 -31 77 -47 32 -17 66 -37 75 -46 10 -9 25 -15 35 -13
9 1 15 -2 12 -7 -3 -4 24 -22 60 -39 36 -17 65 -34 65 -38 0 -7 56 -42 67 -41
3 0 9 -3 12 -8 3 -4 24 -17 46 -28 22 -11 48 -27 58 -36 9 -8 44 -29 76 -44
33 -16 57 -33 55 -37 -3 -4 5 -5 16 -3 11 2 18 0 15 -6 -4 -5 1 -9 9 -9 9 0
16 -4 16 -10 0 -5 6 -10 14 -10 8 0 21 -7 30 -15 8 -9 18 -15 21 -15 7 1 59
-33 66 -43 3 -5 10 -8 15 -8 15 1 154 -82 154 -91 0 -5 5 -6 10 -3 6 3 10 1
10 -5 0 -6 4 -9 8 -6 5 3 18 -3 28 -12 10 -10 35 -25 54 -34 19 -9 52 -28 73
-43 21 -14 36 -20 32 -13 -3 7 2 3 11 -9 9 -13 23 -23 30 -23 8 0 23 -9 34
-20 11 -11 20 -18 20 -15 0 9 94 -44 132 -75 10 -8 22 -15 26 -15 4 0 21 -9
37 -19 73 -46 102 -63 135 -80 19 -9 55 -30 80 -46 25 -16 55 -34 67 -39 11
-5 24 -15 28 -21 3 -5 10 -8 15 -5 5 3 13 -3 19 -12 6 -10 11 -15 11 -11 0 4
48 -23 108 -59 59 -36 112 -66 119 -66 7 0 10 -4 7 -8 -2 -4 6 -11 18 -15 12
-3 50 -24 85 -45 35 -22 66 -39 68 -39 3 0 28 -16 56 -35 28 -19 56 -35 61
-35 5 0 26 -12 45 -27 20 -16 39 -28 42 -27 3 1 23 -10 43 -22 21 -13 42 -24
47 -24 5 0 14 -7 21 -15 7 -9 15 -13 18 -11 2 3 13 -6 24 -19 10 -14 22 -24
26 -23 10 2 66 -22 72 -31 3 -4 52 -34 110 -66 58 -33 107 -62 110 -66 7 -8
69 -40 73 -37 1 2 9 -3 17 -10 25 -21 90 -62 90 -56 0 3 16 -7 35 -22 19 -14
35 -22 35 -18 0 5 4 4 8 -2 10 -15 115 -77 130 -77 6 0 12 -6 12 -13 0 -6 12
-17 28 -23 15 -6 60 -28 100 -51 67 -37 113 -48 152 -38 23 6 99 59 136 95 18
17 58 50 88 73 31 23 56 46 56 51 0 5 4 9 9 9 5 0 27 17 49 38 21 20 56 51 77
67 43 35 61 50 130 111 74 65 85 75 145 124 30 25 64 54 76 65 11 11 45 41 75
66 30 26 87 75 127 110 40 35 87 74 105 87 18 13 50 40 72 61 22 21 59 52 83
69 24 17 42 33 40 35 -2 3 11 16 27 28 17 13 49 41 72 63 23 21 53 46 65 55
13 8 38 30 56 48 18 18 36 33 40 33 4 0 18 12 32 26 13 15 40 38 60 53 19 14
47 38 62 53 14 16 29 28 33 28 4 0 18 11 31 26 13 14 24 23 24 20 0 -2 18 12
39 32 37 35 71 64 166 144 97 81 111 94 222 193 53 48 62 55 68 55 3 0 13 8
23 18 19 17 122 109 171 149 121 103 126 135 29 188 -32 18 -29 33 12 64 44
32 39 56 -16 81 l-47 20 -57 -47 c-195 -161 -509 -429 -509 -435 -1 -3 19 -14
44 -25 63 -25 60 -47 -14 -112 -53 -46 -92 -67 -76 -41 3 5 -17 21 -45 35
l-51 26 -34 -28 c-204 -167 -604 -510 -605 -519 0 -5 20 -20 45 -32 29 -14 45
-28 45 -40 0 -27 -142 -146 -152 -127 -5 7 -29 25 -54 40 -46 27 -47 27 -70 9
-70 -54 -713 -600 -713 -606 -1 -3 19 -18 43 -32 74 -43 71 -52 -78 -179 -72
-63 -141 -120 -152 -127 -17 -11 -36 -2 -159 70 -77 46 -351 208 -610 360
-258 152 -598 353 -755 445 -157 92 -663 391 -1125 663 -462 272 -939 554
-1060 625 -121 72 -247 146 -280 165 -33 19 -145 85 -250 147 -104 61 -197
114 -206 117 -9 4 -44 -8 -79 -25z"/>
<path d="M5354 3525 c-14 -33 -13 -40 3 -73 25 -50 93 -90 178 -104 59 -10 69
-9 80 5 6 9 20 14 31 12 11 -3 31 6 48 21 34 30 36 27 -64 78 -63 33 -177 76
-233 90 -25 6 -29 3 -43 -29z"/>
</g>
</svg>
